<?xml version="1.0" encoding="iso-8859-1"?>
<!-- Generator: Adobe Illustrator 19.0.0, SVG Export Plug-In . SVG Version: 6.00 Build 0)  -->
<svg xmlns="http://www.w3.org/2000/svg" xmlns:xlink="http://www.w3.org/1999/xlink" version="1.1" id="Capa_1" x="0px" y="0px" viewBox="0 0 480 480" style="enable-background:new 0 0 480 480;" xml:space="preserve" width="512px" height="512px">
<g>
	<g>
		<path d="M440,0H40C17.944,0,0,17.944,0,40v304c0,22.056,17.944,40,40,40h157.76l-12,48H128c-4.424,0-8,3.584-8,8    c0,22.056,17.944,40,40,40h160c22.056,0,40-17.944,40-40c0-4.416-3.576-8-8-8h-57.76l-12-48H440c22.056,0,40-17.944,40-40V40    C480,17.944,462.056,0,440,0z M288,448h54.632c-3.304,9.312-12.2,16-22.632,16H160c-10.432,0-19.328-6.688-22.632-16H192H288z     M202.248,432l12-48h51.504l12,48H202.248z M464,344c0,13.232-10.768,24-24,24H272h-64H40c-13.232,0-24-10.768-24-24v-8h448V344z     M464,320H16V40c0-13.232,10.768-24,24-24h400c13.232,0,24,10.768,24,24V320z" fill="#FFFFFF"/>
	</g>
</g>
<g>
	<g>
		<path d="M181.656,237.656l-11.312-11.312l-32,32c-3.128,3.128-3.128,8.184,0,11.312l32,32l11.312-11.312L155.312,264    L181.656,237.656z" fill="#FFFFFF"/>
	</g>
</g>
<g>
	<g>
		
			<rect x="200.014" y="256.009" transform="matrix(0.6002 -0.7999 0.7999 0.6002 -115.209 297.5377)" width="80.003" height="16.001" fill="#FFFFFF"/>
	</g>
</g>
<g>
	<g>
		<path d="M341.656,258.344l-32-32l-11.312,11.312L324.688,264l-26.344,26.344l11.312,11.312l32-32    C344.784,266.528,344.784,261.472,341.656,258.344z" fill="#FFFFFF"/>
	</g>
</g>
<g>
	<g>
		<path d="M320,96h-12.176c-0.84-2.376-1.816-4.712-2.888-6.984l8.608-8.616c1.504-1.504,2.344-3.536,2.344-5.656    s-0.84-4.16-2.344-5.656L290.92,46.456c-3.128-3.128-8.184-3.128-11.312,0l-8.616,8.608c-2.28-1.072-4.608-2.04-6.992-2.888V40    c0-4.416-3.576-8-8-8h-32c-4.424,0-8,3.584-8,8v12.176c-2.384,0.84-4.712,1.808-6.984,2.888l-8.616-8.6    c-3.128-3.128-8.184-3.128-11.312,0l-22.624,22.632c-1.504,1.504-2.344,3.536-2.344,5.656s0.84,4.16,2.344,5.656l8.608,8.616    c-1.08,2.272-2.048,4.608-2.888,6.984H160c-4.424,0-8,3.584-8,8v32c0,4.408,3.576,7.992,8,7.992h12.176    c0.84,2.376,1.816,4.712,2.888,6.984l-8.608,8.616c-1.504,1.504-2.344,3.536-2.344,5.656s0.84,4.16,2.344,5.656l22.624,22.632    c3.128,3.128,8.184,3.128,11.312,0l8.616-8.608c2.272,1.08,4.6,2.048,6.984,2.888V200c0,4.416,3.576,8,8,8h32c4.424,0,8-3.584,8-8    v-12.176c2.384-0.84,4.712-1.808,6.984-2.888l8.616,8.608c3.128,3.128,8.184,3.128,11.312,0l22.624-22.632    c1.504-1.504,2.344-3.536,2.344-5.656s-0.84-4.16-2.344-5.656l-8.608-8.616c1.08-2.272,2.048-4.608,2.888-6.984H320    c4.424,0,8-3.584,8-8v-32C328,99.584,324.424,96,320,96z M312,128h-10.096c-3.648,0-6.832,2.464-7.744,6    c-1.312,5.072-3.32,9.92-5.968,14.4c-1.848,3.144-1.344,7.144,1.232,9.72l7.144,7.136l-11.312,11.32l-7.144-7.136    c-2.576-2.584-6.584-3.088-9.728-1.232c-4.472,2.64-9.312,4.64-14.392,5.952c-3.52,0.904-5.992,4.096-5.992,7.744V192h-16v-10.096    c0-3.648-2.472-6.832-6-7.744c-5.08-1.312-9.92-3.312-14.392-5.952c-3.136-1.856-7.152-1.36-9.728,1.232l-7.144,7.136    l-11.312-11.32l7.144-7.136c2.576-2.576,3.088-6.576,1.232-9.72c-2.648-4.48-4.656-9.328-5.968-14.4c-0.912-3.536-4.088-6-7.736-6    H168v-16h10.096c3.648,0,6.832-2.464,7.744-6c1.312-5.072,3.32-9.92,5.968-14.4c1.848-3.144,1.344-7.144-1.232-9.72l-7.144-7.136    l11.312-11.32l7.144,7.136c2.576,2.584,6.592,3.096,9.728,1.232c4.472-2.64,9.312-4.64,14.392-5.952    c3.52-0.904,5.992-4.096,5.992-7.744V48h16v10.096c0,3.648,2.472,6.832,6,7.744c5.08,1.312,9.92,3.312,14.392,5.952    c3.128,1.848,7.152,1.36,9.728-1.232l7.144-7.136l11.312,11.32l-7.144,7.136c-2.576,2.576-3.088,6.576-1.232,9.72    c2.648,4.48,4.656,9.328,5.968,14.4c0.912,3.528,4.096,6,7.744,6H312V128z" fill="#FFFFFF"/>
	</g>
</g>
<g>
	<g>
		<path d="M240,80c-22.056,0-40,17.944-40,40c0,22.056,17.944,40,40,40c22.056,0,40-17.944,40-40C280,97.944,262.056,80,240,80z     M240,144c-13.232,0-24-10.768-24-24s10.768-24,24-24s24,10.768,24,24S253.232,144,240,144z" fill="#FFFFFF"/>
	</g>
</g>
<g>
	<g>
		<rect x="128" y="64" width="16" height="16" fill="#FFFFFF"/>
	</g>
</g>
<g>
	<g>
		<rect x="96" y="64" width="16" height="16" fill="#FFFFFF"/>
	</g>
</g>
<g>
	<g>
		<rect x="64" y="64" width="16" height="16" fill="#FFFFFF"/>
	</g>
</g>
<g>
	<g>
		<rect x="32" y="64" width="16" height="16" fill="#FFFFFF"/>
	</g>
</g>
<g>
	<g>
		<rect x="32" y="96" width="16" height="16" fill="#FFFFFF"/>
	</g>
</g>
<g>
	<g>
		<rect x="32" y="128" width="16" height="16" fill="#FFFFFF"/>
	</g>
</g>
<g>
	<g>
		<rect x="32" y="160" width="16" height="16" fill="#FFFFFF"/>
	</g>
</g>
<g>
	<g>
		<rect x="32" y="192" width="16" height="16" fill="#FFFFFF"/>
	</g>
</g>
<g>
	<g>
		<rect x="32" y="224" width="16" height="16" fill="#FFFFFF"/>
	</g>
</g>
<g>
	<g>
		<rect x="32" y="256" width="16" height="16" fill="#FFFFFF"/>
	</g>
</g>
<g>
	<g>
		<rect x="64" y="256" width="16" height="16" fill="#FFFFFF"/>
	</g>
</g>
<g>
	<g>
		<rect x="96" y="256" width="16" height="16" fill="#FFFFFF"/>
	</g>
</g>
<g>
	<g>
		<rect x="368" y="256" width="16" height="16" fill="#FFFFFF"/>
	</g>
</g>
<g>
	<g>
		<rect x="400" y="256" width="16" height="16" fill="#FFFFFF"/>
	</g>
</g>
<g>
	<g>
		<rect x="432" y="256" width="16" height="16" fill="#FFFFFF"/>
	</g>
</g>
<g>
	<g>
		<rect x="432" y="224" width="16" height="16" fill="#FFFFFF"/>
	</g>
</g>
<g>
	<g>
		<rect x="432" y="192" width="16" height="16" fill="#FFFFFF"/>
	</g>
</g>
<g>
	<g>
		<rect x="432" y="160" width="16" height="16" fill="#FFFFFF"/>
	</g>
</g>
<g>
	<g>
		<rect x="432" y="128" width="16" height="16" fill="#FFFFFF"/>
	</g>
</g>
<g>
	<g>
		<rect x="432" y="96" width="16" height="16" fill="#FFFFFF"/>
	</g>
</g>
<g>
	<g>
		<rect x="432" y="64" width="16" height="16" fill="#FFFFFF"/>
	</g>
</g>
<g>
	<g>
		<rect x="400" y="64" width="16" height="16" fill="#FFFFFF"/>
	</g>
</g>
<g>
	<g>
		<rect x="368" y="64" width="16" height="16" fill="#FFFFFF"/>
	</g>
</g>
<g>
	<g>
		<rect x="336" y="64" width="16" height="16" fill="#FFFFFF"/>
	</g>
</g>
<g>
</g>
<g>
</g>
<g>
</g>
<g>
</g>
<g>
</g>
<g>
</g>
<g>
</g>
<g>
</g>
<g>
</g>
<g>
</g>
<g>
</g>
<g>
</g>
<g>
</g>
<g>
</g>
<g>
</g>
</svg>
